<?xml version="1.0" encoding="UTF-8"?>
<!-- Created with Inkscape (http://www.inkscape.org/) -->
<svg width="920" height="200" version="1.1" viewBox="0 0 920 200" xmlns="http://www.w3.org/2000/svg" xmlns:cc="http://creativecommons.org/ns#" xmlns:dc="http://purl.org/dc/elements/1.1/" xmlns:rdf="http://www.w3.org/1999/02/22-rdf-syntax-ns#">
 <metadata>
  <rdf:RDF>
   <cc:Work rdf:about="">
    <dc:format>image/svg+xml</dc:format>
    <dc:type rdf:resource="http://purl.org/dc/dcmitype/StillImage"/>
    <dc:title/>
   </cc:Work>
  </rdf:RDF>
 </metadata>
 <g transform="translate(-2522 -654.34)">
  <g transform="matrix(3.0676 0 0 3.0676 -6165.7 -2195.4)">
   <g transform="matrix(1.7717 0 0 1.7717 -2301.1 -745.38)">
    <path d="m3054.8 974.39c0-2.385 1.9363-4.32 4.32-4.32 2.385 0 4.3188 1.935 4.3188 4.32s-1.9338 4.3188-4.3188 4.3188c-2.3837 0-4.32-1.9338-4.32-4.3188" fill="#86bc24"/>
    <g fill="#0f0b0b">
     <path d="m2917.1 962.95c0-2.7362-0.5287-4.7662-1.5862-6.0888-1.0588-1.3212-2.6626-1.9812-4.8188-1.9812h-2.2937v16.732h1.755c2.395 0 4.15-0.71 5.2675-2.135 1.1162-1.4225 1.6762-3.5988 1.6762-6.5275m8.18-0.285c0 4.985-1.34 8.8262-4.02 11.522-2.68 2.6975-6.4475 4.0462-11.304 4.0462h-9.4362v-29.871h10.095c4.6825 0 8.2975 1.2262 10.845 3.6775 2.5463 2.4525 3.82 5.9925 3.82 10.625"/>
     <path d="m2951.4 978.23h7.5087v-29.996h-7.5087v29.996z"/>
     <path d="m2969.4 967.04c0 1.9125 0.25 3.3712 0.7488 4.3738 0.5 1.0038 1.3374 1.505 2.5149 1.505 1.165 0 1.9888-0.50125 2.4688-1.505 0.48-1.0025 0.7187-2.4612 0.7187-4.3738 0-1.9025-0.2425-3.3375-0.7287-4.3062-0.4875-0.97125-1.3188-1.4575-2.4975-1.4575-1.1525 0-1.9762 0.48375-2.4762 1.4462-0.4988 0.96375-0.7488 2.4025-0.7488 4.3175m14.094 0c0 3.6438-0.955 6.4862-2.87 8.5238-1.9137 2.0388-4.5925 3.0588-8.0362 3.0588-3.3025 0-5.9313-1.0425-7.8825-3.1275-1.9537-2.085-2.93-4.9025-2.93-8.455 0-3.6325 0.9563-6.455 2.8713-8.4675 1.9149-2.0125 4.5999-3.0188 8.0574-3.0188 2.1363 0 4.0263 0.46625 5.6638 1.3975 1.6387 0.93125 2.9038 2.265 3.7925 4.0025 0.89 1.735 1.3337 3.765 1.3337 6.0862"/>
     <path d="m2986.5 978.23h7.51v-11.48-10.801h-7.51v22.281z"/>
     <path d="m2986.5 953.25h7.51v-5.0212h-7.51v5.0212z"/>
     <path d="m3009.2 972.55c1.0138 0 2.2213-0.2575 3.63-0.76875v5.6062c-1.0125 0.445-1.975 0.76375-2.89 0.9525-0.915 0.19125-1.9888 0.28625-3.2175 0.28625-2.5213 0-4.3387-0.63375-5.455-1.8988-1.1112-1.265-1.6687-3.2075-1.6687-5.8288v-9.185h-2.63v-5.76h2.63v-5.69l7.5675-1.3162v7.0062h4.7912v5.76h-4.7912v8.6725c0 1.4425 0.6787 2.1638 2.0337 2.1638"/>
     <path d="m3026.6 972.55c1.0138 0 2.2213-0.2575 3.63-0.76875v5.6062c-1.0112 0.445-1.975 0.76375-2.89 0.9525-0.9162 0.19125-1.9862 0.28625-3.2175 0.28625-2.5212 0-4.3387-0.63375-5.4525-1.8988-1.1137-1.265-1.6712-3.2075-1.6712-5.8288v-9.185h-2.6313v-5.76h2.6313v-5.7762l7.5662-1.23v7.0062h4.7938v5.76h-4.7938v8.6725c0 1.4425 0.6788 2.1638 2.035 2.1638"/>
     <path d="m3039.7 964.33c0.1025-1.22 0.4513-2.1138 1.0462-2.685 0.5976-0.57 1.3351-0.855 2.2176-0.855 0.9625 0 1.7275 0.32 2.295 0.965 0.5712 0.64125 0.8687 1.5 0.8925 2.575h-6.4513zm10.59-6.145c-1.785-1.75-4.3175-2.6262-7.5937-2.6262-3.4438 0-6.0938 1.0062-7.9513 3.0188-1.8563 2.0125-2.785 4.9-2.785 8.6625 0 3.6438 1.0038 6.4538 3.0063 8.4262 2.0037 1.9725 4.8174 2.96 8.4412 2.96 1.74 0 3.2375-0.11875 4.4925-0.355 1.2475-0.23375 2.455-0.65625 3.6263-1.2662l-1.1538-5.0212c-0.8512 0.3475-1.6612 0.615-2.4262 0.79125-1.105 0.25625-2.3175 0.385-3.6376 0.385-1.4474 0-2.5899-0.35375-3.4274-1.0612-0.8375-0.70875-1.2838-1.6862-1.335-2.9312h13.422v-3.4212c0-3.2912-0.8926-5.8125-2.6788-7.5612"/>
     <path d="m2935.2 964.33c0.1025-1.22 0.4513-2.1138 1.0462-2.685 0.5963-0.57 1.335-0.855 2.2188-0.855 0.96 0 1.725 0.32 2.2938 0.965 0.5712 0.64125 0.8674 1.5 0.8937 2.575h-6.4525zm10.591-6.145c-1.7862-1.75-4.3175-2.6262-7.5949-2.6262-3.4451 0-6.0938 1.0062-7.9501 3.0188-1.8562 2.0125-2.7862 4.9-2.7862 8.6625 0 3.6438 1.0025 6.4538 3.0075 8.4262 2.0025 1.9725 4.8162 2.96 8.44 2.96 1.74 0 3.2375-0.11875 4.4925-0.355 1.2475-0.23375 2.455-0.65625 3.6275-1.2662l-1.155-5.0212c-0.8513 0.3475-1.6613 0.615-2.425 0.79125-1.1075 0.25625-2.3187 0.385-3.6388 0.385-1.4462 0-2.5899-0.35375-3.4274-1.0612-0.8388-0.70875-1.2838-1.6862-1.335-2.9312h13.422v-3.4212c0-3.2912-0.8926-5.8125-2.6776-7.5612"/>
    </g>
   </g>
  </g>
 </g>
</svg>
